<svg xmlns="http://www.w3.org/2000/svg"  viewBox="0 0 48 48" width="28px" height="28px"><path d="M 24 6 C 21.631689 6 19.461186 6.6899207 17.810547 7.9003906 C 17.367592 8.2252245 16.964813 8.5964985 16.605469 9.0019531 A 1.50015 1.50015 0 0 0 16.5 9 L 6.5 9 A 1.50015 1.50015 0 0 0 5.3007812 11.400391 C 5.3007812 11.400391 8.2170986 15.217566 14.189453 17.058594 L 13.585938 19.476562 L 10.105469 26.435547 C 9.4963522 27.653779 10.004424 29.179947 11.222656 29.789062 L 13.611328 30.982422 L 11.814453 37.519531 C 11.172367 39.720625 12.880524 42 15.173828 42 L 23.753906 42 A 1.50015 1.50015 0 0 0 24.240234 42 L 32.779297 42 C 35.098645 42 36.811985 39.670634 36.121094 37.457031 L 36.136719 37.509766 L 34.365234 30.994141 L 36.777344 29.789062 C 37.995576 29.179946 38.503648 27.653779 37.894531 26.435547 L 34.992188 20.632812 A 1.50015 1.50015 0 0 0 34.923828 20.025391 L 33.884766 16.910156 C 39.709865 15.044422 42.699219 11.400391 42.699219 11.400391 A 1.50015 1.50015 0 0 0 41.5 9 L 31.5 9 A 1.50015 1.50015 0 0 0 31.396484 9.0039062 C 31.036695 8.5976399 30.633158 8.2257745 30.189453 7.9003906 C 28.538814 6.6899207 26.368311 6 24 6 z M 24 9 C 25.773827 9 27.352191 9.5401745 28.416016 10.320312 C 29.47984 11.100452 30 12.033939 30 13 C 30 13.966061 29.47984 14.899549 28.416016 15.679688 C 27.352191 16.459826 25.773827 17 24 17 C 22.226173 17 20.647809 16.459826 19.583984 15.679688 C 18.52016 14.899548 18 13.966061 18 13 C 18 12.033939 18.52016 11.100451 19.583984 10.320312 C 20.647809 9.5401745 22.226173 9 24 9 z M 10.503906 12 L 15.101562 12 C 15.041344 12.326567 15 12.658003 15 13 C 15 13.418338 15.059339 13.822076 15.148438 14.216797 C 13.166375 13.616519 11.672248 12.791378 10.503906 12 z M 21.5 12 A 1.5 1.5 0 0 0 21.5 15 A 1.5 1.5 0 0 0 21.5 12 z M 26.5 12 A 1.5 1.5 0 0 0 26.5 15 A 1.5 1.5 0 0 0 26.5 12 z M 32.898438 12 L 37.496094 12 C 36.327752 12.791378 34.833625 13.616519 32.851562 14.216797 C 32.940661 13.822076 33 13.418338 33 13 C 33 12.658003 32.958656 12.326567 32.898438 12 z M 30.914062 17.488281 L 31.578125 19.478516 A 1.50015 1.50015 0 0 0 31.537109 19.611328 C 26.302147 21.623926 22.461323 21.530276 19.947266 20.863281 C 18.152231 20.387048 17.244338 19.824905 16.691406 19.414062 L 17.15625 17.558594 C 17.364748 17.749155 17.581331 17.931518 17.810547 18.099609 C 19.461186 19.310079 21.631689 20 24 20 C 26.368311 20 28.538814 19.310079 30.189453 18.099609 C 30.445678 17.911711 30.68399 17.704118 30.914062 17.488281 z M 15.560547 22.234375 C 15.68854 22.311531 15.812352 22.38756 15.955078 22.466797 L 14.421875 28.035156 L 13.013672 27.330078 L 15.560547 22.234375 z M 32.564453 22.484375 L 34.986328 27.330078 L 33.5625 28.042969 L 32.099609 22.667969 C 32.251292 22.612459 32.410967 22.543175 32.564453 22.484375 z M 29.234375 23.5625 L 33.242188 38.296875 A 1.50015 1.50015 0 0 0 33.257812 38.349609 C 33.370926 38.71201 33.157948 39 32.779297 39 L 25.5 39 L 25.5 24.224609 C 26.659033 24.117856 27.908683 23.899152 29.234375 23.5625 z M 18.746094 23.626953 C 18.89244 23.670863 19.025122 23.72123 19.177734 23.761719 C 20.147013 24.018874 21.266225 24.194429 22.5 24.267578 L 22.5 39 L 15.173828 39 C 14.799877 39 14.587864 38.717834 14.693359 38.359375 A 1.50015 1.50015 0 0 0 14.701172 38.333984 L 18.746094 23.626953 z"/></svg>