<?xml version="1.0" standalone="no"?>
<!DOCTYPE svg PUBLIC "-//W3C//DTD SVG 20010904//EN"
    "http://www.w3.org/TR/2001/REC-SVG-20010904/DTD/svg10.dtd">
<svg version="1.0" xmlns="http://www.w3.org/2000/svg"
     width="48.000000pt" height="48.000000pt" viewBox="0 0 48.000000 48.000000"
     preserveAspectRatio="xMidYMid meet">

  <g transform="translate(0.000000,48.000000) scale(0.100000,-0.100000)"
     fill="#000000" stroke="none">
    <path d="M180 449 c-14 -6 -40 -24 -57 -41 -37 -35 -70 -122 -55 -141 5 -7 12
-21 14 -32 3 -11 9 -27 13 -37 4 -11 0 -18 -14 -23 -16 -5 -21 -15 -21 -41 0
-24 5 -34 15 -34 9 0 15 10 15 26 0 42 21 22 44 -41 18 -52 25 -60 46 -60 21
0 26 6 30 35 4 30 9 35 33 35 25 1 27 -2 27 -38 0 -36 2 -38 27 -35 23 3 29
12 54 83 14 44 36 102 48 129 20 47 21 51 6 96 -33 100 -136 154 -225 119z
m122 -35 l30 -16 -26 -27 c-35 -37 -95 -36 -133 1 l-26 26 29 16 c38 20 87 20
126 0z m-139 -72 c32 -33 27 -42 -25 -42 -41 0 -44 5 -26 45 14 32 18 31 51
-3z m205 3 c18 -40 15 -45 -26 -45 -52 0 -57 9 -25 42 33 34 37 35 51 3z
m-103 -55 c0 -18 -6 -26 -23 -28 -24 -4 -38 18 -28 44 3 9 15 14 28 12 17 -2
23 -10 23 -28z m-65 -40 c11 -11 29 -20 40 -20 11 0 29 9 40 20 14 14 33 20
61 20 35 0 40 -2 34 -17 -5 -10 -23 -58 -41 -108 l-33 -90 0 48 c-1 50 -12 58
-43 30 -17 -15 -19 -15 -36 0 -31 28 -42 20 -43 -30 l0 -48 -20 55 c-18 52
-18 56 -2 67 9 7 20 13 25 13 4 0 8 7 8 16 0 16 -12 16 -51 0 -11 -5 -18 2
-26 29 l-11 35 39 0 c26 0 46 -7 59 -20z"/>
    <path d="M230 400 c0 -5 5 -10 10 -10 6 0 10 5 10 10 0 6 -4 10 -10 10 -5 0
-10 -4 -10 -10z"/>
    <path d="M180 390 c0 -5 5 -10 10 -10 6 0 10 5 10 10 0 6 -4 10 -10 10 -5 0
-10 -4 -10 -10z"/>
    <path d="M280 390 c0 -5 5 -10 10 -10 6 0 10 5 10 10 0 6 -4 10 -10 10 -5 0
-10 -4 -10 -10z"/>
    <path d="M210 370 c0 -5 5 -10 10 -10 6 0 10 5 10 10 0 6 -4 10 -10 10 -5 0
-10 -4 -10 -10z"/>
    <path d="M250 370 c0 -5 5 -10 10 -10 6 0 10 5 10 10 0 6 -4 10 -10 10 -5 0
-10 -4 -10 -10z"/>
    <path d="M225 201 c-6 -20 3 -51 15 -51 13 0 21 35 14 54 -8 21 -21 20 -29 -3z"/>
  </g>
</svg>
